<svg xmlns="http://www.w3.org/2000/svg" width="920" height="620" viewBox="0 0 920 620">
<rect width="100%" height="100%" fill="white" />
<text x="460.0" y="32" text-anchor="middle" font-size="22" font-weight="700">Top Tokens After Stopword Removal</text>
<text x="160" y="75.1" text-anchor="end" font-size="14">대한</text><rect x="170" y="59.0" width="710.0" height="18.0" fill="#2563eb" /><text x="888.0" y="75.1" font-size="13">11,642</text><text x="160" y="101.1" text-anchor="end" font-size="14">하는</text><rect x="170" y="85.0" width="699.7" height="18.0" fill="#2563eb" /><text x="877.7" y="101.1" font-size="13">11,473</text><text x="160" y="127.1" text-anchor="end" font-size="14">하고</text><rect x="170" y="111.0" width="577.7" height="18.0" fill="#2563eb" /><text x="755.7" y="127.1" font-size="13">9,472</text><text x="160" y="153.1" text-anchor="end" font-size="14">많은</text><rect x="170" y="137.0" width="452.2" height="18.0" fill="#2563eb" /><text x="630.2" y="153.1" font-size="13">7,415</text><text x="160" y="179.1" text-anchor="end" font-size="14">위해</text><rect x="170" y="163.0" width="439.2" height="18.0" fill="#2563eb" /><text x="617.2" y="179.1" font-size="13">7,201</text><text x="160" y="205.1" text-anchor="end" font-size="14">것입니다</text><rect x="170" y="189.0" width="390.1" height="18.0" fill="#2563eb" /><text x="568.1" y="205.1" font-size="13">6,396</text><text x="160" y="231.1" text-anchor="end" font-size="14">것이</text><rect x="170" y="215.0" width="376.5" height="18.0" fill="#2563eb" /><text x="554.5" y="231.1" font-size="13">6,174</text><text x="160" y="257.1" text-anchor="end" font-size="14">것은</text><rect x="170" y="241.0" width="363.4" height="18.0" fill="#2563eb" /><text x="541.4" y="257.1" font-size="13">5,958</text><text x="160" y="283.1" text-anchor="end" font-size="14">모든</text><rect x="170" y="267.0" width="348.4" height="18.0" fill="#2563eb" /><text x="526.4" y="283.1" font-size="13">5,712</text><text x="160" y="309.1" text-anchor="end" font-size="14">같은</text><rect x="170" y="293.0" width="345.3" height="18.0" fill="#2563eb" /><text x="523.3" y="309.1" font-size="13">5,662</text><text x="160" y="335.1" text-anchor="end" font-size="14">다른</text><rect x="170" y="319.0" width="319.7" height="18.0" fill="#2563eb" /><text x="497.7" y="335.1" font-size="13">5,242</text><text x="160" y="361.1" text-anchor="end" font-size="14">아니라</text><rect x="170" y="345.0" width="299.1" height="18.0" fill="#2563eb" /><text x="477.1" y="361.1" font-size="13">4,905</text><text x="160" y="387.1" text-anchor="end" font-size="14">것을</text><rect x="170" y="371.0" width="298.6" height="18.0" fill="#2563eb" /><text x="476.6" y="387.1" font-size="13">4,897</text><text x="160" y="413.1" text-anchor="end" font-size="14">또한</text><rect x="170" y="397.0" width="290.2" height="18.0" fill="#2563eb" /><text x="468.2" y="413.1" font-size="13">4,758</text><text x="160" y="439.1" text-anchor="end" font-size="14">위한</text><rect x="170" y="423.0" width="288.5" height="18.0" fill="#2563eb" /><text x="466.5" y="439.1" font-size="13">4,731</text><text x="160" y="465.1" text-anchor="end" font-size="14">때문에</text><rect x="170" y="449.0" width="278.5" height="18.0" fill="#2563eb" /><text x="456.5" y="465.1" font-size="13">4,566</text><text x="160" y="491.1" text-anchor="end" font-size="14">아닌</text><rect x="170" y="475.0" width="275.7" height="18.0" fill="#2563eb" /><text x="453.7" y="491.1" font-size="13">4,520</text><text x="160" y="517.1" text-anchor="end" font-size="14">현재</text><rect x="170" y="501.0" width="271.1" height="18.0" fill="#2563eb" /><text x="449.1" y="517.1" font-size="13">4,446</text><text x="160" y="543.1" text-anchor="end" font-size="14">않고</text><rect x="170" y="527.0" width="270.0" height="18.0" fill="#2563eb" /><text x="448.0" y="543.1" font-size="13">4,428</text><text x="160" y="569.1" text-anchor="end" font-size="14">대해</text><rect x="170" y="553.0" width="252.1" height="18.0" fill="#2563eb" /><text x="430.1" y="569.1" font-size="13">4,133</text>
</svg>
